<svg width="655" height="285" viewBox="0 0 655 285" fill="none" xmlns="http://www.w3.org/2000/svg">
<g filter="url(#filter0_d_98_473)">
<path d="M540.231 169.598L107.507 204.799C86.9814 206.509 69.0466 191.02 67.4524 170.402L65.0611 140.733C63.467 120.115 78.7115 102.012 99.2367 100.302L531.862 65.1007C552.387 63.3909 570.322 78.8794 571.916 99.4972L574.307 129.167C575.902 149.885 560.657 167.989 540.231 169.598Z" fill="url(#paint0_linear_98_473)"/>
</g>
<path d="M538.835 186.799H101.726C81.4815 186.799 65.0616 170.231 65.0616 149.784V120.014C65.0616 99.5677 81.4815 83 101.726 83H538.835C559.08 83 575.5 99.5677 575.5 120.014V149.784C575.5 170.231 559.08 186.799 538.835 186.799Z" fill="#031822" stroke="url(#paint1_linear_98_473)"/>
<path d="M251.979 175.23H71.1376C62.1703 175.23 54.9964 167.988 54.9964 158.937V86.6234C54.9964 77.6723 62.1703 70.3303 71.1376 70.3303H541.426C550.294 70.3303 557.567 77.5717 557.567 86.6234V158.937C557.567 167.888 550.393 175.23 541.426 175.23H392.767" stroke="url(#paint2_linear_98_473)" stroke-width="2" stroke-miterlimit="10" stroke-linecap="round" stroke-linejoin="round"/>
<path d="M387.984 179.353C390.241 179.353 392.069 177.507 392.069 175.23C392.069 172.952 390.241 171.106 387.984 171.106C385.728 171.106 383.899 172.952 383.899 175.23C383.899 177.507 385.728 179.353 387.984 179.353Z" stroke="url(#paint3_linear_98_473)" stroke-width="2" stroke-miterlimit="10" stroke-linecap="round" stroke-linejoin="round"/>
<path d="M247.496 169.296L251.979 175.23L247.496 180.761" stroke="url(#paint4_linear_98_473)" stroke-width="2" stroke-miterlimit="10" stroke-linecap="round" stroke-linejoin="round"/>
<defs>
<filter id="filter0_d_98_473" x="0.946693" y="0.97168" width="653.475" height="283.956" filterUnits="userSpaceOnUse" color-interpolation-filters="sRGB">
<feFlood flood-opacity="0" result="BackgroundImageFix"/>
<feColorMatrix in="SourceAlpha" type="matrix" values="0 0 0 0 0 0 0 0 0 0 0 0 0 0 0 0 0 0 127 0" result="hardAlpha"/>
<feOffset dx="8" dy="8"/>
<feGaussianBlur stdDeviation="36"/>
<feComposite in2="hardAlpha" operator="out"/>
<feColorMatrix type="matrix" values="0 0 0 0 0 0 0 0 0 0.00784314 0 0 0 0 0.027451 0 0 0 0.2 0"/>
<feBlend mode="normal" in2="BackgroundImageFix" result="effect1_dropShadow_98_473"/>
<feBlend mode="normal" in="SourceGraphic" in2="effect1_dropShadow_98_473" result="shape"/>
</filter>
<linearGradient id="paint0_linear_98_473" x1="319.684" y1="64.9717" x2="319.684" y2="204.928" gradientUnits="userSpaceOnUse">
<stop stop-color="#00BED8"/>
<stop offset="1" stop-color="#008294"/>
</linearGradient>
<linearGradient id="paint1_linear_98_473" x1="320.281" y1="82.5" x2="320.281" y2="187.299" gradientUnits="userSpaceOnUse">
<stop stop-color="#00BED8"/>
<stop offset="1" stop-color="#008294"/>
</linearGradient>
<linearGradient id="paint2_linear_98_473" x1="306.282" y1="70.3303" x2="306.282" y2="175.23" gradientUnits="userSpaceOnUse">
<stop stop-color="#00BED8"/>
<stop offset="1" stop-color="#008294"/>
</linearGradient>
<linearGradient id="paint3_linear_98_473" x1="387.984" y1="171.106" x2="387.984" y2="179.353" gradientUnits="userSpaceOnUse">
<stop stop-color="#00BED8"/>
<stop offset="1" stop-color="#008294"/>
</linearGradient>
<linearGradient id="paint4_linear_98_473" x1="249.738" y1="169.296" x2="249.738" y2="180.761" gradientUnits="userSpaceOnUse">
<stop stop-color="#00BED8"/>
<stop offset="1" stop-color="#008294"/>
</linearGradient>
</defs>
</svg>
