<svg width="98" height="100" viewBox="0 0 98 100" fill="none" xmlns="http://www.w3.org/2000/svg">
<path d="M73.1363 74.5156C86.592 60.9742 86.592 39.0191 73.1363 25.4777C59.6807 11.9362 37.8648 11.9362 24.4092 25.4777C10.9536 39.0191 10.9536 60.9742 24.4092 74.5156C37.8648 88.0571 59.6807 88.0571 73.1363 74.5156Z" fill="url(#paint0_linear_119_21843)"/>
<path d="M48.7719 86C29.0578 86 13 69.8397 13 50C13 30.1603 29.0578 14 48.7719 14C68.4859 14 84.5437 30.1603 84.5437 50C84.5437 69.8397 68.4859 86 48.7719 86ZM48.7719 16.6492C30.4911 16.6492 15.6324 31.6026 15.6324 50C15.6324 68.3974 30.4911 83.3508 48.7719 83.3508C67.0527 83.3508 81.9113 68.3974 81.9113 50C81.9113 31.6026 67.0527 16.6492 48.7719 16.6492Z" fill="#03272B"/>
<path d="M79.8346 49.7056C79.8931 52.2077 79.6298 54.7392 79.1033 57.0646C76.4416 68.5151 66.9649 77.6991 55.5869 80.2306C54.6509 80.4366 53.715 80.6133 52.779 80.731C43.6532 81.8496 34.352 78.6999 27.6831 72.3124C20.0783 65.0417 14.5502 51.3246 19.7858 41.2576C22.506 36.0474 27.5954 32.2796 33.5622 32.2796C36.6626 32.2796 39.5291 33.1921 41.9568 34.7228C46.3149 37.4898 51.8723 37.4898 56.2012 34.7228C58.6288 33.1627 61.4953 32.2796 64.5957 32.2796C66.2337 32.2796 67.8131 32.5446 69.2756 32.9861C76.6756 35.341 79.6591 42.4939 79.8346 49.7056Z" fill="url(#paint1_linear_119_21843)"/>
<path d="M49.1228 82.2911C40.933 82.2911 32.7725 79.0531 26.7471 73.2837C18.4696 65.3949 13.1755 51.0302 18.5866 40.6394C21.7163 34.6639 27.4199 30.955 33.533 30.955C36.7796 30.955 39.9093 31.8675 42.6295 33.6042C46.5197 36.1063 51.5798 36.1063 55.4699 33.6042C58.1901 31.8675 61.3198 30.955 64.5665 30.955C66.2922 30.955 68.0179 31.2199 69.6558 31.7203C76.7341 33.9575 80.9168 40.4922 81.1508 49.6468C81.2093 52.2077 80.946 54.8569 80.3611 57.3589C77.6409 69.1627 67.7839 78.8765 55.8502 81.5257C54.8849 81.7318 53.8905 81.9084 52.896 82.0262C51.6675 82.2028 50.3806 82.2911 49.1228 82.2911ZM33.533 33.6042C28.4144 33.6042 23.5882 36.7833 20.9265 41.8757C16.1004 51.148 21.0143 64.1586 28.5606 71.3704C34.9662 77.493 43.9457 80.4955 52.6035 79.4358C53.5102 79.3181 54.417 79.1709 55.2944 78.9648C66.2629 76.5217 75.3009 67.6026 77.8164 56.7702C78.3429 54.5037 78.5769 52.0605 78.5184 49.7351C78.4306 45.9673 77.2899 36.9011 68.8661 34.2518C67.4914 33.8103 66.0289 33.6042 64.5665 33.6042C61.8463 33.6042 59.1846 34.3696 56.8739 35.8414C52.1063 38.8733 45.9639 38.8733 41.2255 35.8414C38.9148 34.399 36.2824 33.6042 33.533 33.6042Z" fill="#03272B"/>
<path d="M70.1823 65.866C69.1586 66.5135 67.9594 66.9845 66.8186 67.3377C65.6194 67.7204 64.3909 67.9559 63.1332 68.0442C60.5885 68.2208 58.0439 67.7499 55.7039 66.7785C53.364 65.7777 51.5505 64.2764 48.8596 64.3059C46.2857 64.3353 44.5599 65.8071 42.2785 66.7785C39.9386 67.7793 37.3939 68.2503 34.8492 68.0442C33.5915 67.9559 32.363 67.7204 31.1638 67.3377C29.9938 66.9845 28.8238 66.5135 27.8001 65.866C25.9282 64.6885 24.4657 62.9812 23.0325 61.3034C24.6704 64.8357 26.9519 68.0442 29.4673 70.4579C34.3812 75.1677 40.9038 77.9346 47.6019 78.2879C47.9821 78.3173 48.3331 78.3173 48.7133 78.3173C48.8011 78.3173 48.8596 78.3173 48.9473 78.3173C49.0351 78.3173 49.0936 78.3173 49.1813 78.3173C49.5616 78.3173 49.9126 78.3173 50.2928 78.2879C56.9909 77.9346 63.5135 75.1677 68.4273 70.4579C70.972 68.0442 73.2242 64.8357 74.8622 61.3034C73.5167 62.9812 72.0543 64.6885 70.1823 65.866Z" fill="#2C6B74"/>
<g opacity="0.4">
<path d="M25.3432 31.8381C26.5132 31.1022 27.8001 30.6018 29.1163 30.1897C30.4618 29.7776 31.8365 29.5127 33.2405 29.3949C36.0777 29.1889 38.9149 29.7187 41.518 30.8078C44.1212 31.9264 46.1687 33.6042 49.1521 33.5454C52.0478 33.5159 53.9782 31.8675 56.4937 30.8078C59.0969 29.6893 61.9633 29.1889 64.7712 29.3949C66.1752 29.5127 67.5499 29.7776 68.8954 30.1897C70.1823 30.6018 71.4986 31.1022 72.6685 31.8381C74.7452 33.1627 76.3832 35.076 77.9919 36.9305C76.1492 32.9861 73.6045 29.3949 70.7966 26.6868C65.2977 21.4178 58.0146 18.327 50.5268 17.9444C50.1173 17.9149 49.7078 17.9149 49.2983 17.9149C49.2106 17.9149 49.1229 17.9149 49.0351 17.9149C48.9474 17.9149 48.8596 17.9149 48.7719 17.9149C48.3624 17.9149 47.9529 17.9149 47.5434 17.9444C40.0556 18.327 32.7725 21.4178 27.2736 26.6868C24.4072 29.3949 21.8625 32.9861 20.0198 36.9305C21.6285 35.076 23.2665 33.1333 25.3432 31.8381Z" fill="#2C6B74"/>
</g>
<path d="M62.0803 38.8732C59.4186 38.726 56.9032 39.4031 54.7972 40.6982C51.0533 42.9354 46.4612 42.9354 42.7173 40.6982C40.6113 39.4325 38.0959 38.7555 35.4342 38.8732C28.7946 39.197 23.442 44.6721 23.1787 51.3834C22.8863 58.8013 28.7946 64.9239 36.1069 64.9239C38.5346 64.9239 40.7868 64.2469 42.7173 63.0989C46.4612 60.8618 51.0533 60.8618 54.7972 63.0989C56.7277 64.2469 59.0091 64.9239 61.4075 64.9239C68.7199 64.9239 74.6282 58.8307 74.3357 51.3834C74.1017 44.6721 68.7199 39.197 62.0803 38.8732Z" fill="white"/>
<path d="M61.4075 66.2191C58.8336 66.2191 56.3182 65.5127 54.1245 64.2175C50.8193 62.2453 46.6951 62.2453 43.39 64.2175C41.1963 65.5421 38.6808 66.2485 36.1069 66.2485C32.1875 66.2485 28.5606 64.6884 25.8404 61.8626C23.1202 59.0368 21.7163 55.2984 21.8625 51.354C22.155 43.9951 28.0634 37.9607 35.3757 37.5781C38.2129 37.4309 40.9915 38.1373 43.4192 39.5797C46.7244 41.5519 50.8193 41.5519 54.1245 39.5797C56.5522 38.1373 59.3308 37.4309 62.168 37.5781C69.4511 37.9607 75.3887 43.9951 75.6812 51.354C75.8274 55.2984 74.4235 59.0368 71.7033 61.8626C68.9831 64.659 65.3269 66.2191 61.4075 66.2191ZM48.7718 60.067C51.0825 60.067 53.4225 60.6852 55.4699 61.9215C57.2541 62.9812 59.3016 63.5699 61.4075 63.5699C64.5957 63.5699 67.5791 62.3041 69.7728 59.9787C71.9958 57.6533 73.1365 54.6214 73.0195 51.4129C72.8147 45.4374 67.9886 40.4922 62.0218 40.1979C59.7111 40.0801 57.4296 40.6394 55.4699 41.8168C51.3458 44.2894 46.1979 44.2894 42.0445 41.8168C40.0848 40.6394 37.8034 40.0801 35.4927 40.1979C29.5551 40.4922 24.6997 45.4374 24.4949 51.4129C24.378 54.6214 25.5187 57.6827 27.7416 59.9787C29.9646 62.3041 32.9187 63.5699 36.1069 63.5699C38.2129 63.5699 40.2603 63.0106 42.0445 61.9215C44.1212 60.6852 46.4612 60.067 48.7718 60.067Z" fill="#03272B"/>
<path d="M30.4033 49.4701C30.4033 49.4701 36.5457 49.7939 38.2421 49.7939C39.9386 49.7939 41.2841 51.1774 41.2841 52.8552C41.2841 54.5331 39.9093 55.9166 38.2421 55.9166C31.8365 55.9166 30.4033 51.148 30.4033 49.4701Z" fill="#00E0FF"/>
<path d="M38.2421 57.2412C30.7836 57.2412 29.0871 51.4718 29.0871 49.4702V48.0867L30.4618 48.1455C30.5203 48.1455 36.6042 48.4693 38.2129 48.4693C40.6113 48.4693 42.571 50.4415 42.571 52.8553C42.571 55.269 40.6406 57.2412 38.2421 57.2412ZM32.012 50.8831C32.5385 52.4137 34.0595 54.592 38.2129 54.592C39.1781 54.592 39.9386 53.8266 39.9386 52.8553C39.9386 51.8839 39.1781 51.1186 38.2129 51.1186C37.0721 51.1186 33.9717 50.9714 32.012 50.8831Z" fill="#03272B"/>
<path d="M67.1404 49.4701C67.1404 49.4701 60.998 49.7939 59.3016 49.7939C57.6344 49.7939 56.2596 51.1774 56.2596 52.8552C56.2596 54.5331 57.6344 55.9166 59.3016 55.9166C65.7072 55.9166 67.1404 51.148 67.1404 49.4701Z" fill="#00E0FF"/>
<path d="M59.3016 57.2412C56.9032 57.2412 54.9435 55.269 54.9435 52.8553C54.9435 50.4415 56.9032 48.4693 59.3016 48.4693C60.9396 48.4693 66.9942 48.1455 67.0527 48.1455L68.4274 48.0867V49.4702C68.4566 51.4718 66.7602 57.2412 59.3016 57.2412ZM65.5317 50.8831C63.572 50.9714 60.4716 51.1186 59.3308 51.1186C58.3656 51.1186 57.6051 51.8839 57.6051 52.8553C57.6051 53.8266 58.3656 54.592 59.3308 54.592C63.4842 54.592 64.976 52.3843 65.5317 50.8831Z" fill="#03272B"/>
<defs>
<linearGradient id="paint0_linear_119_21843" x1="24.4092" y1="25.4777" x2="73.4461" y2="74.2038" gradientUnits="userSpaceOnUse">
<stop stop-color="#00BED8"/>
<stop offset="1" stop-color="#008294"/>
</linearGradient>
<linearGradient id="paint1_linear_119_21843" x1="48.7852" y1="32.2796" x2="48.7852" y2="80.9532" gradientUnits="userSpaceOnUse">
<stop stop-color="#00BED8"/>
<stop offset="1" stop-color="#008294"/>
</linearGradient>
</defs>
</svg>
